<svg width="1024" height="1024" viewBox="0 0 1024 1024" fill="none" xmlns="http://www.w3.org/2000/svg">
<path d="M0 480C0 311.984 0 227.976 32.698 163.803C61.4601 107.354 107.354 61.4601 163.803 32.698C227.976 0 311.984 0 480 0H544C712.016 0 796.024 0 860.197 32.698C916.646 61.4601 962.54 107.354 991.302 163.803C1024 227.976 1024 311.984 1024 480V544C1024 712.016 1024 796.024 991.302 860.197C962.54 916.646 916.646 962.54 860.197 991.302C796.024 1024 712.016 1024 544 1024H480C311.984 1024 227.976 1024 163.803 991.302C107.354 962.54 61.4601 916.646 32.698 860.197C0 796.024 0 712.016 0 544V480Z" fill="#38A5FF"/>
<ellipse cx="275.28" cy="677.5" rx="133.28" ry="141.5" fill="white"/>
<ellipse cx="297.004" cy="678.674" rx="81.0249" ry="88.6577" fill="#1A547A"/>
<ellipse cx="253.683" cy="632.753" rx="28.5552" ry="30.619" transform="rotate(36.05 253.683 632.753)" fill="white"/>
<ellipse cx="749.687" cy="677.5" rx="133.28" ry="141.5" fill="white"/>
<ellipse cx="732.539" cy="678.674" rx="81.0249" ry="88.6577" fill="#1A547A"/>
<ellipse cx="689.218" cy="632.753" rx="28.5552" ry="30.619" transform="rotate(36.05 689.218 632.753)" fill="white"/>
<path d="M390 858C463.028 905.961 567.845 903.354 634 858" stroke="#17639D" stroke-width="34" stroke-linecap="round" stroke-linejoin="round"/>
</svg>
